<svg width="16" height="16" viewBox="0 0 16 16" fill="none" xmlns="http://www.w3.org/2000/svg">
<path d="M3.33553 4.66677H3.31676C3.11234 4.6791 2.90758 4.64915 2.71526 4.5788C2.52294 4.50845 2.34719 4.3992 2.19898 4.25787C2.05078 4.11655 1.9333 3.94619 1.85389 3.75743C1.77447 3.56867 1.73483 3.36557 1.73742 3.1608C1.74002 2.95603 1.78481 2.754 1.86899 2.56731C1.95317 2.38063 2.07494 2.21331 2.22668 2.07579C2.37843 1.93828 2.5569 1.83352 2.75094 1.76808C2.94499 1.70263 3.15044 1.67789 3.35448 1.6954C3.55952 1.68055 3.76542 1.70828 3.95923 1.77686C4.15304 1.84543 4.33057 1.95336 4.48065 2.09386C4.63073 2.23436 4.75012 2.40439 4.83131 2.59326C4.9125 2.78213 4.95374 2.98576 4.95243 3.19134C4.95112 3.39691 4.90729 3.6 4.82369 3.78782C4.7401 3.97564 4.61855 4.14413 4.46669 4.28271C4.31483 4.42128 4.13594 4.52694 3.94128 4.59304C3.74661 4.65913 3.54037 4.68424 3.33553 4.66677Z" fill="#12161A"/>
<path d="M4.67839 6.66675H2.01172V14.6667H4.67839V6.66675Z" fill="#12161A"/>
<path d="M11.6777 6.66675C11.2284 6.66798 10.7851 6.77075 10.381 6.9674C9.97699 7.16405 9.62262 7.44949 9.3444 7.80237V6.66675H6.67773V14.6667H9.3444V11.0001C9.3444 10.6465 9.48488 10.3073 9.73493 10.0573C9.98497 9.80722 10.3241 9.66675 10.6777 9.66675C11.0314 9.66675 11.3705 9.80722 11.6205 10.0573C11.8706 10.3073 12.0111 10.6465 12.0111 11.0001V14.6667H14.6777V9.66675C14.6777 9.27278 14.6001 8.88267 14.4494 8.5187C14.2986 8.15472 14.0776 7.824 13.7991 7.54543C13.5205 7.26685 13.1898 7.04587 12.8258 6.89511C12.4618 6.74435 12.0717 6.66675 11.6777 6.66675Z" fill="#12161A"/>
</svg>
