<svg width="32" height="32" viewBox="0 0 32 32" fill="none" xmlns="http://www.w3.org/2000/svg">
<g clip-path="url(#clip0_2357_10206)">
<path d="M16 32C24.8375 32 32 24.8375 32 16C32 7.1625 24.8375 0 16 0C7.1625 0 0 7.1625 0 16C0 24.8375 7.1625 32 16 32ZM23.0625 13.0625L15.0625 21.0625C14.475 21.65 13.525 21.65 12.9438 21.0625L8.94375 17.0625C8.35625 16.475 8.35625 15.525 8.94375 14.9438C9.53125 14.3625 10.4812 14.3563 11.0625 14.9438L14 17.8813L20.9375 10.9375C21.525 10.35 22.475 10.35 23.0562 10.9375C23.6375 11.525 23.6437 12.475 23.0562 13.0562L23.0625 13.0625Z" fill="#1E1E1E"/>
</g>
<defs>
<clipPath id="clip0_2357_10206">
<rect width="32" height="32" fill="white"/>
</clipPath>
</defs>
</svg>
